<svg width="204" height="18" viewBox="0 0 204 18" fill="none" xmlns="http://www.w3.org/2000/svg">
<rect width="204" height="18" rx="9" fill="#FBFF2B" fill-opacity="0.26"/>
<path d="M89.6362 13V4.27273H92.9771C93.6078 4.27273 94.1319 4.37216 94.5495 4.57102C94.97 4.76705 95.2839 5.03551 95.4913 5.37642C95.7015 5.71733 95.8066 6.10369 95.8066 6.53551C95.8066 6.89062 95.7385 7.1946 95.6021 7.44744C95.4657 7.69744 95.2825 7.90057 95.0524 8.05682C94.8223 8.21307 94.5652 8.32528 94.2811 8.39347V8.47869C94.5907 8.49574 94.8876 8.59091 95.1717 8.7642C95.4586 8.93466 95.693 9.17614 95.8748 9.48864C96.0566 9.80114 96.1476 10.179 96.1476 10.6222C96.1476 11.0739 96.0382 11.4801 95.8194 11.8409C95.6007 12.1989 95.2711 12.4815 94.8308 12.6889C94.3904 12.8963 93.8365 13 93.1689 13H89.6362ZM91.2172 11.679H92.9174C93.4913 11.679 93.9047 11.5696 94.1575 11.3509C94.4132 11.1293 94.541 10.8452 94.541 10.4986C94.541 10.2401 94.4771 10.0071 94.3493 9.79972C94.2214 9.58949 94.0396 9.42472 93.8038 9.3054C93.568 9.18324 93.2868 9.12216 92.96 9.12216H91.2172V11.679ZM91.2172 7.98438H92.7811C93.0538 7.98438 93.2995 7.93466 93.5183 7.83523C93.737 7.73295 93.9089 7.58949 94.0339 7.40483C94.1618 7.21733 94.2257 6.99574 94.2257 6.74006C94.2257 6.40199 94.1064 6.12358 93.8677 5.90483C93.6319 5.68608 93.2811 5.5767 92.8152 5.5767H91.2172V7.98438ZM100.352 13.1278C99.6962 13.1278 99.1294 12.9915 98.6522 12.7188C98.1777 12.4432 97.8127 12.054 97.557 11.5511C97.3013 11.0455 97.1735 10.4503 97.1735 9.76562C97.1735 9.09233 97.3013 8.50142 97.557 7.9929C97.8155 7.48153 98.1763 7.08381 98.6394 6.79972C99.1025 6.51278 99.6465 6.36932 100.271 6.36932C100.675 6.36932 101.056 6.43466 101.414 6.56534C101.774 6.69318 102.093 6.89205 102.368 7.16193C102.646 7.43182 102.865 7.77557 103.024 8.19318C103.183 8.60795 103.263 9.10227 103.263 9.67614V10.1491H97.8979V9.10938H101.784C101.781 8.81392 101.718 8.55114 101.593 8.32102C101.468 8.08807 101.293 7.90483 101.068 7.77131C100.847 7.63778 100.588 7.57102 100.293 7.57102C99.9775 7.57102 99.7005 7.64773 99.4618 7.80114C99.2232 7.9517 99.0371 8.15057 98.9036 8.39773C98.7729 8.64205 98.7061 8.91051 98.7033 9.20312V10.1108C98.7033 10.4915 98.7729 10.8182 98.9121 11.0909C99.0513 11.3608 99.2459 11.5682 99.4959 11.7131C99.7459 11.8551 100.039 11.9261 100.374 11.9261C100.598 11.9261 100.801 11.8949 100.983 11.8324C101.165 11.767 101.323 11.6719 101.456 11.5469C101.59 11.4219 101.691 11.267 101.759 11.0824L103.199 11.2443C103.108 11.625 102.935 11.9574 102.679 12.2415C102.426 12.5227 102.102 12.7415 101.708 12.8977C101.313 13.0511 100.861 13.1278 100.352 13.1278ZM107.836 6.45455V7.64773H104.074V6.45455H107.836ZM105.003 4.88636H106.545V11.0312C106.545 11.2386 106.577 11.3977 106.639 11.5085C106.704 11.6165 106.79 11.6903 106.895 11.7301C107 11.7699 107.116 11.7898 107.244 11.7898C107.341 11.7898 107.429 11.7827 107.508 11.7685C107.591 11.7543 107.653 11.7415 107.696 11.7301L107.956 12.9361C107.873 12.9645 107.756 12.9957 107.602 13.0298C107.452 13.0639 107.267 13.0838 107.048 13.0895C106.662 13.1009 106.314 13.0426 106.004 12.9148C105.694 12.7841 105.449 12.5824 105.267 12.3097C105.088 12.0369 105 11.696 105.003 11.2869V4.88636ZM111.01 13.1321C110.595 13.1321 110.222 13.0582 109.889 12.9105C109.56 12.7599 109.298 12.5384 109.105 12.2457C108.915 11.9531 108.82 11.5923 108.82 11.1634C108.82 10.794 108.888 10.4886 109.024 10.2472C109.161 10.0057 109.347 9.8125 109.583 9.66761C109.818 9.52273 110.084 9.41335 110.379 9.33949C110.678 9.26278 110.986 9.20739 111.304 9.1733C111.688 9.13352 111.999 9.09801 112.237 9.06676C112.476 9.03267 112.649 8.98153 112.757 8.91335C112.868 8.84233 112.923 8.73295 112.923 8.58523V8.55966C112.923 8.23864 112.828 7.99006 112.638 7.81392C112.448 7.63778 112.173 7.54972 111.816 7.54972C111.438 7.54972 111.138 7.6321 110.916 7.79688C110.698 7.96165 110.55 8.15625 110.473 8.38068L109.033 8.17614C109.146 7.77841 109.334 7.44602 109.595 7.17898C109.857 6.90909 110.176 6.70739 110.554 6.57386C110.932 6.4375 111.35 6.36932 111.807 6.36932C112.122 6.36932 112.436 6.40625 112.749 6.48011C113.061 6.55398 113.347 6.67614 113.605 6.84659C113.864 7.0142 114.071 7.2429 114.227 7.53267C114.387 7.82244 114.466 8.18466 114.466 8.61932V13H112.983V12.1009H112.932C112.838 12.2827 112.706 12.4531 112.536 12.6122C112.368 12.7685 112.156 12.8949 111.901 12.9915C111.648 13.0852 111.351 13.1321 111.01 13.1321ZM111.411 11.9986C111.72 11.9986 111.989 11.9375 112.216 11.8153C112.443 11.6903 112.618 11.5256 112.74 11.321C112.865 11.1165 112.928 10.8935 112.928 10.652V9.88068C112.879 9.92045 112.797 9.95739 112.681 9.99148C112.567 10.0256 112.439 10.0554 112.297 10.081C112.155 10.1065 112.014 10.1293 111.875 10.1491C111.736 10.169 111.615 10.1861 111.513 10.2003C111.283 10.2315 111.077 10.2827 110.895 10.3537C110.713 10.4247 110.57 10.5241 110.465 10.652C110.36 10.777 110.307 10.9389 110.307 11.1378C110.307 11.4219 110.411 11.6364 110.618 11.7812C110.825 11.9261 111.09 11.9986 111.411 11.9986Z" fill="#FDC707" fill-opacity="0.99"/>
</svg>
