<svg width="486" height="150" viewBox="0 0 486 150" fill="none" xmlns="http://www.w3.org/2000/svg">
<path fill-rule="evenodd" clip-rule="evenodd" d="M247.624 30.0961C258.044 30.7368 267.812 35.8623 274.976 42.9098C283.441 51.8795 288 62.7712 288 75.5849C288 85.8359 284.093 95.4462 277.58 103.775C271.068 111.463 261.951 117.23 251.531 119.152C241.112 121.074 230.692 119.792 221.575 114.667C212.458 109.541 205.295 101.853 201.387 92.2428C197.48 82.6325 196.829 71.7408 200.085 62.1305C203.341 51.8795 209.202 43.5505 218.319 37.7844C226.785 32.0182 237.205 29.4554 247.624 30.0961ZM250.88 112.745C259.346 110.823 267.161 106.338 273.022 99.2903C278.232 92.2428 281.488 83.9138 280.837 74.9442C280.837 64.6932 276.929 54.4422 269.766 47.3947C263.254 40.9878 255.439 37.1437 246.322 36.503C237.856 35.8623 228.739 37.7844 221.575 42.9098C214.412 48.0353 209.202 55.0829 206.597 64.0525C203.992 72.3815 203.992 81.3511 207.9 89.68C211.807 98.009 217.668 104.416 225.483 108.901C233.297 113.385 242.414 114.667 250.88 112.745ZM243.066 71.7408L258.695 55.7236L263.254 60.2084L247.624 76.2256L263.254 92.2428L258.695 96.7276L243.066 80.7104L227.436 96.7276L222.878 92.2428L238.507 76.2256L222.878 60.2084L227.436 55.7236L243.066 71.7408Z" fill="#F24E4E"/>
</svg>
