<svg width="486" height="150" viewBox="0 0 486 150" fill="none" xmlns="http://www.w3.org/2000/svg">
<path d="M243 30L198.116 50.1205C198.116 50.1205 193.473 119.768 243 119.768C292.527 119.768 287.884 50.1205 287.884 50.1205L243 30Z" stroke="#4D5052" stroke-width="6" stroke-linecap="round" stroke-linejoin="round"/>
<path d="M242.555 51C235.94 51 230.406 54.7998 228.15 60.0612C228.046 60.3025 227.995 60.56 228 60.8192C228.006 61.0783 228.067 61.3339 228.181 61.5714C228.295 61.809 228.46 62.0237 228.665 62.2034C228.87 62.3832 229.112 62.5243 229.378 62.6188C229.643 62.7134 229.926 62.7594 230.211 62.7543C230.496 62.7492 230.777 62.6931 231.038 62.5892C231.299 62.4853 231.535 62.3356 231.733 62.1487C231.93 61.9618 232.085 61.7414 232.189 61.5C233.846 57.6341 237.75 54.9184 242.555 54.9184C248.826 54.9184 253.863 59.5003 253.863 65.2041C253.863 68.8404 251.66 71.9588 248.445 73.8062H248.411V73.8365C244.555 75.9989 241.503 79.4726 240.939 84.061C240.893 84.4376 240.909 84.6705 240.906 85.0407C240.903 85.4107 240.902 85.8301 240.906 86.2651C240.913 87.1351 240.939 88.0588 240.939 88.2243C240.935 88.4839 240.988 88.7416 241.095 88.9825C241.201 89.2235 241.359 89.4427 241.559 89.6276C241.76 89.8125 241.999 89.9593 242.262 90.0595C242.525 90.1597 242.808 90.2113 243.093 90.2113C243.379 90.2113 243.661 90.1597 243.925 90.0595C244.188 89.9593 244.427 89.8125 244.627 89.6276C244.828 89.4427 244.986 89.2235 245.092 88.9825C245.199 88.7416 245.251 88.4839 245.247 88.2243C245.247 87.912 245.221 87.0841 245.214 86.2345C245.21 85.8096 245.211 85.3756 245.214 85.0407C245.216 84.7057 245.264 84.3838 245.247 84.5202C245.656 81.1922 247.654 78.822 250.666 77.1427C250.677 77.1428 250.689 77.1428 250.7 77.1427C255.05 74.6557 258.171 70.3018 258.171 65.2041C258.171 57.3826 251.154 51 242.555 51ZM243.093 93.1224C241.309 93.1224 239.862 94.4382 239.862 96.0612C239.862 97.6842 241.309 99 243.093 99C244.878 99 246.324 97.6842 246.324 96.0612C246.324 94.4382 244.878 93.1224 243.093 93.1224Z" fill="#4D5052" stroke="#4D5052" stroke-width="1.5"/>
</svg>
