<svg width="101" height="93" viewBox="0 0 101 93" fill="none" xmlns="http://www.w3.org/2000/svg">
<path d="M50.2539 16.8223L20.3311 30.2359C20.3311 30.2359 17.2356 76.6679 50.2539 76.6679C83.2722 76.6679 80.1767 30.2359 80.1767 30.2359L50.2539 16.8223Z" stroke="#4D5052" stroke-width="4" stroke-linecap="round" stroke-linejoin="round"/>
<path d="M49.9572 30.8223C45.5471 30.8223 41.858 33.3555 40.3539 36.8631C40.2845 37.0239 40.2506 37.1956 40.2542 37.3684C40.2577 37.5411 40.2987 37.7115 40.3747 37.8699C40.4507 38.0282 40.5603 38.1714 40.6972 38.2912C40.8341 38.411 40.9956 38.5051 41.1725 38.5682C41.3493 38.6312 41.5381 38.6619 41.7281 38.6585C41.918 38.6551 42.1053 38.6177 42.2794 38.5484C42.4534 38.4792 42.6107 38.3794 42.7423 38.2548C42.874 38.1302 42.9773 37.9832 43.0464 37.8223C44.1516 35.245 46.7537 33.4345 49.9572 33.4345C54.1379 33.4345 57.4962 36.4891 57.4962 40.2917C57.4962 42.7159 56.0275 44.7948 53.8837 46.0264H53.8613V46.0466C51.2903 47.4882 49.2561 49.804 48.8802 52.8629C48.8493 53.114 48.8597 53.2693 48.8577 53.516C48.8558 53.7628 48.8552 54.0423 48.8577 54.3323C48.8627 54.9123 48.8802 55.5282 48.8802 55.6384C48.8775 55.8115 48.9126 55.9833 48.9836 56.144C49.0546 56.3046 49.1599 56.4508 49.2935 56.574C49.4271 56.6973 49.5863 56.7951 49.7619 56.8619C49.9375 56.9288 50.1259 56.9631 50.3162 56.9631C50.5065 56.9631 50.6949 56.9288 50.8704 56.8619C51.046 56.7951 51.2052 56.6973 51.3388 56.574C51.4724 56.4508 51.5778 56.3046 51.6488 56.144C51.7197 55.9833 51.7549 55.8115 51.7522 55.6384C51.7522 55.4303 51.7346 54.8783 51.7297 54.3119C51.7273 54.0287 51.728 53.7393 51.7297 53.516C51.7315 53.2927 51.7633 53.0781 51.7522 53.1691C52.0248 50.9504 53.3564 49.3703 55.3646 48.2507C55.3721 48.2508 55.3796 48.2508 55.3871 48.2507C58.2872 46.5928 60.3682 43.6901 60.3682 40.2917C60.3682 35.0773 55.69 30.8223 49.9572 30.8223ZM50.3162 58.9039C49.1266 58.9039 48.1622 59.7811 48.1622 60.8631C48.1622 61.9451 49.1266 62.8223 50.3162 62.8223C51.5058 62.8223 52.4702 61.9451 52.4702 60.8631C52.4702 59.7811 51.5058 58.9039 50.3162 58.9039Z" fill="#4D5052" stroke="#4D5052"/>
</svg>
