<svg width="32" height="32" viewBox="0 0 32 32" fill="none" xmlns="http://www.w3.org/2000/svg">
<rect width="32" height="31.9998" rx="15.9999" fill="#202E61"/>
<path d="M25.3333 22.4145C25.3333 23.8969 23.9402 24.9847 22.502 24.6252L16.553 23.1379C16.1902 23.0472 15.8105 23.0472 15.4477 23.1379L9.49876 24.6252C8.06055 24.9847 6.66736 23.8969 6.66736 22.4145L6.66736 15.4571C6.66736 13.8055 7.01374 12.3801 7.7065 11.1809C8.50188 9.80081 9.64365 8.70349 11.1318 7.88898C12.5943 7.07448 14.2107 6.66722 15.9811 6.66722C17.7515 6.66722 19.3808 7.07448 20.8689 7.88898C22.357 8.68086 23.4988 9.76687 24.2942 11.147C24.987 12.3235 25.3333 13.7602 25.3333 15.4571L25.3333 19.1563L25.3333 22.4145Z" fill="url(#paint0_linear_64_56)"/>
<mask id="mask0_64_56" style="mask-type:alpha" maskUnits="userSpaceOnUse" x="6" y="6" width="20" height="19">
<path d="M25.3327 22.4139C25.3327 23.8963 23.9395 24.9841 22.5013 24.6246L16.5523 23.1373C16.1895 23.0466 15.8099 23.0466 15.447 23.1373L9.49808 24.6246C8.05987 24.9841 6.66669 23.8963 6.66669 22.4139L6.66669 15.4565C6.66669 13.8049 7.01307 12.3795 7.70582 11.1803C8.50121 9.8002 9.64298 8.70288 11.1311 7.88837C12.5936 7.07387 14.2101 6.66661 15.9804 6.66661C17.7508 6.66661 19.3801 7.07387 20.8682 7.88837C22.3564 8.68025 23.4981 9.76626 24.2935 11.1464C24.9863 12.3229 25.3327 13.7596 25.3327 15.4565L25.3327 19.1557L25.3327 22.4139Z" fill="url(#paint1_linear_64_56)"/>
</mask>
<g mask="url(#mask0_64_56)">
<g filter="url(#filter0_d_64_56)">
<path fill-rule="evenodd" clip-rule="evenodd" d="M21.1355 11.2096C21.513 11.4762 21.5752 11.9707 21.2743 12.314L14.7253 19.7894C14.574 19.9621 14.3505 20.0712 14.1085 20.0907C13.8664 20.1102 13.6276 20.0382 13.4491 19.892L10.5679 17.5321C10.2131 17.2414 10.1907 16.7438 10.518 16.4205C10.8453 16.0973 11.3982 16.0708 11.7531 16.3614L13.9437 18.1557L19.9072 11.3487C20.2081 11.0053 20.758 10.9431 21.1355 11.2096Z" fill="url(#paint2_linear_64_56)" shape-rendering="crispEdges"/>
<path d="M21.221 11.0882L21.1357 11.2093L21.221 11.0882C20.7813 10.7777 20.1458 10.8492 19.7945 11.2501L13.9257 17.949L11.8472 16.2465C11.432 15.9065 10.793 15.9384 10.4126 16.3142C10.0239 16.6981 10.0488 17.2989 10.4738 17.647L13.355 20.0069C13.5654 20.1793 13.8434 20.2616 14.1217 20.2392C14.3999 20.2169 14.6599 20.0913 14.838 19.888L21.387 12.4127C21.7464 12.0024 21.6706 11.4056 21.221 11.0882Z" stroke="white" stroke-opacity="0.23" stroke-width="0.298304" shape-rendering="crispEdges"/>
</g>
</g>
<defs>
<filter id="filter0_d_64_56" x="7.00488" y="9.2547" width="17.7416" height="15.6117" filterUnits="userSpaceOnUse" color-interpolation-filters="sRGB">
<feFlood flood-opacity="0" result="BackgroundImageFix"/>
<feColorMatrix in="SourceAlpha" type="matrix" values="0 0 0 0 0 0 0 0 0 0 0 0 0 0 0 0 0 0 127 0" result="hardAlpha"/>
<feOffset dy="1.49152"/>
<feGaussianBlur stdDeviation="1.49152"/>
<feComposite in2="hardAlpha" operator="out"/>
<feColorMatrix type="matrix" values="0 0 0 0 0.215686 0 0 0 0 0.313726 0 0 0 0 0.835294 0 0 0 0.12 0"/>
<feBlend mode="normal" in2="BackgroundImageFix" result="effect1_dropShadow_64_56"/>
<feBlend mode="normal" in="SourceGraphic" in2="effect1_dropShadow_64_56" result="shape"/>
</filter>
<linearGradient id="paint0_linear_64_56" x1="6.66736" y1="16.0001" x2="25.3333" y2="16.0001" gradientUnits="userSpaceOnUse">
<stop stop-color="#66EFF0"/>
<stop offset="1" stop-color="#68DDFD"/>
</linearGradient>
<linearGradient id="paint1_linear_64_56" x1="6.66669" y1="15.9995" x2="25.3327" y2="15.9995" gradientUnits="userSpaceOnUse">
<stop stop-color="#2D52EC"/>
<stop offset="1" stop-color="#3750D5"/>
</linearGradient>
<linearGradient id="paint2_linear_64_56" x1="8.22766" y1="9.40566" x2="12.2293" y2="21.6474" gradientUnits="userSpaceOnUse">
<stop stop-color="#68DDFD"/>
<stop offset="1" stop-color="white"/>
</linearGradient>
</defs>
</svg>
